<svg width="107" height="14" viewBox="0 0 107 14" fill="none" xmlns="http://www.w3.org/2000/svg">
<path d="M2.79167 1.38599V6.53967C2.79167 7.05504 2.91847 7.45179 3.17206 7.72992C3.42566 8.00806 3.79787 8.14713 4.2887 8.14713C4.77952 8.14713 5.15582 8.00806 5.4176 7.72992C5.67937 7.45179 5.81026 7.05504 5.81026 6.53967V1.38599H7.90854V6.5274C7.90854 7.29636 7.74494 7.94671 7.41772 8.47844C7.0905 9.01017 6.64876 9.41101 6.09248 9.68096C5.54439 9.95092 4.93086 10.0859 4.25188 10.0859C3.57291 10.0859 2.96346 9.95501 2.42355 9.69323C1.89182 9.42328 1.47053 9.02244 1.15967 8.49071C0.848816 7.9508 0.693387 7.29636 0.693387 6.5274V1.38599H2.79167ZM11.8484 4.12235C12.0529 3.80331 12.3351 3.54562 12.6951 3.34929C13.055 3.15296 13.4763 3.0548 13.9589 3.0548C14.5234 3.0548 15.0347 3.19796 15.4928 3.48427C15.9509 3.77059 16.3108 4.17961 16.5726 4.71134C16.8426 5.24307 16.9775 5.86069 16.9775 6.56421C16.9775 7.26773 16.8426 7.88944 16.5726 8.42935C16.3108 8.96108 15.9509 9.3742 15.4928 9.66869C15.0347 9.95501 14.5234 10.0982 13.9589 10.0982C13.4845 10.0982 13.0632 10 12.6951 9.80367C12.3351 9.60734 12.0529 9.35374 11.8484 9.04289V13.264H9.7501V3.15296H11.8484V4.12235ZM14.8424 6.56421C14.8424 6.04066 14.6952 5.63164 14.4007 5.33714C14.1144 5.03447 13.7585 4.88313 13.3331 4.88313C12.9159 4.88313 12.5601 5.03447 12.2656 5.33714C11.9793 5.63982 11.8361 6.05293 11.8361 6.57648C11.8361 7.10003 11.9793 7.51314 12.2656 7.81582C12.5601 8.1185 12.9159 8.26983 13.3331 8.26983C13.7503 8.26983 14.1062 8.1185 14.4007 7.81582C14.6952 7.50496 14.8424 7.08776 14.8424 6.56421ZM18.0293 6.56421C18.0293 5.86069 18.1602 5.24307 18.4219 4.71134C18.6919 4.17961 19.0559 3.77059 19.514 3.48427C19.9721 3.19796 20.4834 3.0548 21.0478 3.0548C21.4978 3.0548 21.9068 3.14887 22.2749 3.33702C22.6512 3.52517 22.9457 3.77877 23.1584 4.0978V0.9197H25.2567V10H23.1584V9.01835C22.9621 9.34556 22.6798 9.60734 22.3117 9.80367C21.9518 10 21.5305 10.0982 21.0478 10.0982C20.4834 10.0982 19.9721 9.95501 19.514 9.66869C19.0559 9.3742 18.6919 8.96108 18.4219 8.42935C18.1602 7.88944 18.0293 7.26773 18.0293 6.56421ZM23.1584 6.57648C23.1584 6.05293 23.0112 5.63982 22.7167 5.33714C22.4303 5.03447 22.0786 4.88313 21.6614 4.88313C21.2442 4.88313 20.8883 5.03447 20.5938 5.33714C20.3075 5.63164 20.1644 6.04066 20.1644 6.56421C20.1644 7.08776 20.3075 7.50496 20.5938 7.81582C20.8883 8.1185 21.2442 8.26983 21.6614 8.26983C22.0786 8.26983 22.4303 8.1185 22.7167 7.81582C23.0112 7.51314 23.1584 7.10003 23.1584 6.57648ZM26.7256 6.56421C26.7256 5.86069 26.8565 5.24307 27.1183 4.71134C27.3882 4.17961 27.7523 3.77059 28.2104 3.48427C28.6685 3.19796 29.1798 3.0548 29.7442 3.0548C30.2269 3.0548 30.6482 3.15296 31.0081 3.34929C31.3762 3.54562 31.6584 3.80331 31.8548 4.12235V3.15296H33.9531V10H31.8548V9.03062C31.6503 9.34965 31.3639 9.60734 30.9958 9.80367C30.6359 10 30.2146 10.0982 29.7319 10.0982C29.1757 10.0982 28.6685 9.95501 28.2104 9.66869C27.7523 9.3742 27.3882 8.96108 27.1183 8.42935C26.8565 7.88944 26.7256 7.26773 26.7256 6.56421ZM31.8548 6.57648C31.8548 6.05293 31.7075 5.63982 31.413 5.33714C31.1267 5.03447 30.7749 4.88313 30.3577 4.88313C29.9405 4.88313 29.5847 5.03447 29.2902 5.33714C29.0039 5.63164 28.8607 6.04066 28.8607 6.56421C28.8607 7.08776 29.0039 7.50496 29.2902 7.81582C29.5847 8.1185 29.9405 8.26983 30.3577 8.26983C30.7749 8.26983 31.1267 8.1185 31.413 7.81582C31.7075 7.51314 31.8548 7.10003 31.8548 6.57648ZM39.6554 8.22075V10H38.5878C37.827 10 37.234 9.81594 36.8086 9.44782C36.3832 9.07152 36.1705 8.46208 36.1705 7.61949V4.8954H35.3361V3.15296H36.1705V1.48415H38.2688V3.15296H39.6431V4.8954H38.2688V7.64403C38.2688 7.84854 38.3179 7.99579 38.416 8.08577C38.5142 8.17576 38.6778 8.22075 38.9069 8.22075H39.6554ZM47.6466 6.46605C47.6466 6.66238 47.6344 6.86689 47.6098 7.07958H42.8611C42.8938 7.50496 43.0288 7.83218 43.266 8.06123C43.5114 8.28211 43.81 8.39254 44.1618 8.39254C44.6853 8.39254 45.0494 8.17167 45.2539 7.72992H47.4871C47.3726 8.17985 47.164 8.58478 46.8613 8.94472C46.5668 9.30466 46.1946 9.58689 45.7447 9.7914C45.2948 9.99591 44.7917 10.0982 44.2354 10.0982C43.5646 10.0982 42.9674 9.95501 42.4439 9.66869C41.9203 9.38238 41.5113 8.97335 41.2168 8.44162C40.9223 7.90989 40.7751 7.28818 40.7751 6.57648C40.7751 5.86478 40.9182 5.24307 41.2045 4.71134C41.499 4.17961 41.9081 3.77059 42.4316 3.48427C42.9552 3.19796 43.5564 3.0548 44.2354 3.0548C44.898 3.0548 45.487 3.19386 46.0024 3.472C46.5177 3.75014 46.9186 4.14689 47.2049 4.66226C47.4994 5.17762 47.6466 5.77889 47.6466 6.46605ZM45.4993 5.91386C45.4993 5.55393 45.3766 5.26761 45.1312 5.05492C44.8857 4.84223 44.579 4.73588 44.2109 4.73588C43.8591 4.73588 43.5605 4.83814 43.3151 5.04265C43.0779 5.24716 42.9306 5.53756 42.8734 5.91386H45.4993ZM51.9072 10.0982C51.31 10.0982 50.7783 9.99591 50.312 9.7914C49.8457 9.58689 49.4776 9.30875 49.2076 8.95699C48.9377 8.59705 48.7863 8.19621 48.7536 7.75447H50.8273C50.8519 7.9917 50.9623 8.18394 51.1586 8.33119C51.355 8.47844 51.5963 8.55206 51.8826 8.55206C52.1444 8.55206 52.3448 8.50298 52.4839 8.40481C52.6311 8.29847 52.7048 8.16349 52.7048 7.99988C52.7048 7.80355 52.6025 7.66039 52.398 7.57041C52.1935 7.47224 51.8622 7.36589 51.4041 7.25137C50.9132 7.13684 50.5042 7.01823 50.177 6.89552C49.8498 6.76463 49.5675 6.56421 49.3303 6.29426C49.0931 6.01612 48.9745 5.64391 48.9745 5.17762C48.9745 4.78496 49.0808 4.42911 49.2935 4.11008C49.5144 3.78286 49.8334 3.52517 50.2506 3.33702C50.676 3.14887 51.1791 3.0548 51.7599 3.0548C52.6189 3.0548 53.2937 3.26749 53.7846 3.69287C54.2836 4.11826 54.5699 4.68271 54.6435 5.38623H52.7048C52.672 5.14899 52.5657 4.96084 52.3857 4.82177C52.2139 4.68271 51.9849 4.61317 51.6986 4.61317C51.4531 4.61317 51.265 4.66226 51.1341 4.76042C51.0032 4.85041 50.9378 4.9772 50.9378 5.14081C50.9378 5.33714 51.04 5.48439 51.2445 5.58256C51.4572 5.68072 51.7845 5.77889 52.2262 5.87705C52.7334 6.00794 53.1465 6.13883 53.4655 6.26971C53.7846 6.39242 54.0627 6.59693 54.2999 6.88325C54.5454 7.16138 54.6721 7.53768 54.6803 8.01215C54.6803 8.41299 54.5658 8.77293 54.3368 9.09197C54.1159 9.40283 53.7928 9.64824 53.3674 9.82821C52.9502 10.0082 52.4634 10.0982 51.9072 10.0982ZM65.89 10L65.0924 9.22695C64.2989 9.8323 63.3499 10.135 62.2456 10.135C61.583 10.135 61.0062 10.0286 60.5154 9.81594C60.0246 9.59507 59.6442 9.2883 59.3742 8.89564C59.1125 8.4948 58.9816 8.02851 58.9816 7.49678C58.9816 6.95687 59.1247 6.47014 59.4111 6.03657C59.7056 5.59483 60.1432 5.23489 60.724 4.95675C60.5113 4.69498 60.36 4.44547 60.27 4.20824C60.18 3.96283 60.135 3.69696 60.135 3.41065C60.135 3.00162 60.2414 2.62941 60.4541 2.29402C60.6668 1.95862 60.9735 1.69684 61.3744 1.50869C61.7834 1.31236 62.266 1.2142 62.8223 1.2142C63.3868 1.2142 63.8653 1.31645 64.258 1.52096C64.6506 1.72547 64.9451 1.99952 65.1415 2.3431C65.3378 2.68668 65.4278 3.06298 65.4114 3.472H63.4358C63.444 3.25113 63.3868 3.08343 63.2641 2.9689C63.1495 2.8462 62.9941 2.78484 62.7978 2.78484C62.6014 2.78484 62.4378 2.84211 62.3069 2.95663C62.1761 3.07116 62.1106 3.21841 62.1106 3.39838C62.1106 3.57017 62.1638 3.75014 62.2701 3.93829C62.3847 4.12644 62.5605 4.34322 62.7978 4.58863L64.8961 6.63783C64.9124 6.59693 64.9329 6.54785 64.9574 6.49059C64.9901 6.43332 65.0228 6.36788 65.0556 6.29426L65.5096 5.5212H67.6079L67.0189 6.58875C66.798 7.0714 66.5444 7.5295 66.2581 7.96307L68.3318 10H65.89ZM62.3438 8.44162C62.8918 8.44162 63.3786 8.2862 63.804 7.97534L61.8897 6.12247C61.3007 6.42514 61.0062 6.83417 61.0062 7.34953C61.0062 7.66039 61.1249 7.92217 61.3621 8.13486C61.6075 8.33937 61.9347 8.44162 62.3438 8.44162ZM80.1334 10H78.0351L74.5257 4.6868V10H72.4274V1.38599H74.5257L78.0351 6.72373V1.38599H80.1334V10ZM88.4768 6.46605C88.4768 6.66238 88.4646 6.86689 88.44 7.07958H83.6913C83.724 7.50496 83.859 7.83218 84.0962 8.06123C84.3416 8.28211 84.6402 8.39254 84.992 8.39254C85.5155 8.39254 85.8796 8.17167 86.0841 7.72992H88.3173C88.2028 8.17985 87.9942 8.58478 87.6915 8.94472C87.397 9.30466 87.0248 9.58689 86.5749 9.7914C86.125 9.99591 85.6219 10.0982 85.0656 10.0982C84.3948 10.0982 83.7976 9.95501 83.2741 9.66869C82.7505 9.38238 82.3415 8.97335 82.047 8.44162C81.7525 7.90989 81.6053 7.28818 81.6053 6.57648C81.6053 5.86478 81.7484 5.24307 82.0347 4.71134C82.3292 4.17961 82.7383 3.77059 83.2618 3.48427C83.7854 3.19796 84.3866 3.0548 85.0656 3.0548C85.7282 3.0548 86.3172 3.19386 86.8326 3.472C87.3479 3.75014 87.7488 4.14689 88.0351 4.66226C88.3296 5.17762 88.4768 5.77889 88.4768 6.46605ZM86.3295 5.91386C86.3295 5.55393 86.2068 5.26761 85.9614 5.05492C85.7159 4.84223 85.4092 4.73588 85.0411 4.73588C84.6893 4.73588 84.3907 4.83814 84.1453 5.04265C83.9081 5.24716 83.7608 5.53756 83.7036 5.91386H86.3295ZM99.7807 3.15296L97.9279 10H95.6087L94.5289 5.55802L93.4122 10H91.1054L89.2402 3.15296H91.3385L92.3079 8.04896L93.4613 3.15296H95.6823L96.848 8.02442L97.8051 3.15296H99.7807ZM103.734 10.0982C103.137 10.0982 102.606 9.99591 102.139 9.7914C101.673 9.58689 101.305 9.30875 101.035 8.95699C100.765 8.59705 100.614 8.19621 100.581 7.75447H102.655C102.679 7.9917 102.79 8.18394 102.986 8.33119C103.182 8.47844 103.424 8.55206 103.71 8.55206C103.972 8.55206 104.172 8.50298 104.311 8.40481C104.458 8.29847 104.532 8.16349 104.532 7.99988C104.532 7.80355 104.43 7.66039 104.225 7.57041C104.021 7.47224 103.689 7.36589 103.231 7.25137C102.741 7.13684 102.332 7.01823 102.004 6.89552C101.677 6.76463 101.395 6.56421 101.158 6.29426C100.92 6.01612 100.802 5.64391 100.802 5.17762C100.802 4.78496 100.908 4.42911 101.121 4.11008C101.342 3.78286 101.661 3.52517 102.078 3.33702C102.503 3.14887 103.006 3.0548 103.587 3.0548C104.446 3.0548 105.121 3.26749 105.612 3.69287C106.111 4.11826 106.397 4.68271 106.471 5.38623H104.532C104.499 5.14899 104.393 4.96084 104.213 4.82177C104.041 4.68271 103.812 4.61317 103.526 4.61317C103.28 4.61317 103.092 4.66226 102.961 4.76042C102.831 4.85041 102.765 4.9772 102.765 5.14081C102.765 5.33714 102.867 5.48439 103.072 5.58256C103.285 5.68072 103.612 5.77889 104.054 5.87705C104.561 6.00794 104.974 6.13883 105.293 6.26971C105.612 6.39242 105.89 6.59693 106.127 6.88325C106.373 7.16138 106.499 7.53768 106.508 8.01215C106.508 8.41299 106.393 8.77293 106.164 9.09197C105.943 9.40283 105.62 9.64824 105.195 9.82821C104.777 10.0082 104.291 10.0982 103.734 10.0982Z" fill="#FFAE00"/>
</svg>
